<svg xmlns="http://www.w3.org/2000/svg" width="70" height="21" viewBox="0 0 70 21">
  <g id="Group_4825" data-name="Group 4825" transform="translate(-16164 -391)">
    <rect id="Rectangle_1193" data-name="Rectangle 1193" width="3" height="3" transform="translate(16164 391)"/>
    <rect id="Rectangle_1212" data-name="Rectangle 1212" width="3" height="3" transform="translate(16164 400)"/>
    <rect id="Rectangle_1222" data-name="Rectangle 1222" width="3" height="3" transform="translate(16164 409)"/>
    <rect id="Rectangle_1198" data-name="Rectangle 1198" width="3" height="3" transform="translate(16186 391)"/>
    <rect id="Rectangle_1209" data-name="Rectangle 1209" width="3" height="3" transform="translate(16186 400)"/>
    <rect id="Rectangle_1219" data-name="Rectangle 1219" width="3" height="3" transform="translate(16186 409)"/>
    <rect id="Rectangle_1201" data-name="Rectangle 1201" width="3" height="3" transform="translate(16209 391)"/>
    <rect id="Rectangle_1206" data-name="Rectangle 1206" width="3" height="3" transform="translate(16209 400)"/>
    <rect id="Rectangle_1216" data-name="Rectangle 1216" width="3" height="3" transform="translate(16209 409)"/>
    <rect id="Rectangle_1194" data-name="Rectangle 1194" width="3" height="3" transform="translate(16171 391)"/>
    <rect id="Rectangle_1211" data-name="Rectangle 1211" width="3" height="3" transform="translate(16171 400)"/>
    <rect id="Rectangle_1221" data-name="Rectangle 1221" width="3" height="3" transform="translate(16171 409)"/>
    <rect id="Rectangle_1197" data-name="Rectangle 1197" width="3" height="3" transform="translate(16194 391)"/>
    <rect id="Rectangle_1208" data-name="Rectangle 1208" width="3" height="3" transform="translate(16194 400)"/>
    <rect id="Rectangle_1218" data-name="Rectangle 1218" width="3" height="3" transform="translate(16194 409)"/>
    <rect id="Rectangle_1200" data-name="Rectangle 1200" width="3" height="3" transform="translate(16216 391)"/>
    <rect id="Rectangle_1205" data-name="Rectangle 1205" width="3" height="3" transform="translate(16216 400)"/>
    <rect id="Rectangle_1215" data-name="Rectangle 1215" width="3" height="3" transform="translate(16216 409)"/>
    <rect id="Rectangle_1195" data-name="Rectangle 1195" width="3" height="3" transform="translate(16179 391)"/>
    <rect id="Rectangle_1210" data-name="Rectangle 1210" width="3" height="3" transform="translate(16179 400)"/>
    <rect id="Rectangle_1220" data-name="Rectangle 1220" width="3" height="3" transform="translate(16179 409)"/>
    <rect id="Rectangle_1196" data-name="Rectangle 1196" width="3" height="3" transform="translate(16201 391)"/>
    <rect id="Rectangle_1207" data-name="Rectangle 1207" width="3" height="3" transform="translate(16201 400)"/>
    <rect id="Rectangle_1217" data-name="Rectangle 1217" width="3" height="3" transform="translate(16201 409)"/>
    <rect id="Rectangle_1199" data-name="Rectangle 1199" width="3" height="3" transform="translate(16224 391)"/>
    <rect id="Rectangle_1203" data-name="Rectangle 1203" width="3" height="3" transform="translate(16224 400)"/>
    <rect id="Rectangle_1213" data-name="Rectangle 1213" width="3" height="3" transform="translate(16224 409)"/>
    <rect id="Rectangle_1202" data-name="Rectangle 1202" width="3" height="3" transform="translate(16231 391)"/>
    <rect id="Rectangle_1204" data-name="Rectangle 1204" width="3" height="3" transform="translate(16231 400)"/>
    <rect id="Rectangle_1214" data-name="Rectangle 1214" width="3" height="3" transform="translate(16231 409)"/>
  </g>
</svg>
