<svg xmlns="http://www.w3.org/2000/svg" xmlns:xlink="http://www.w3.org/1999/xlink" width="30" height="21" viewBox="0 0 30 21">
  <defs>
    <clipPath id="clip-path">
      <rect id="Rectangle_1344" data-name="Rectangle 1344" width="30" height="21" transform="translate(0.24 -0.037)" fill="#fff"/>
    </clipPath>
  </defs>
  <g id="Group_4925" data-name="Group 4925" transform="translate(-0.24 0.037)">
    <g id="Group_4851" data-name="Group 4851" transform="translate(0 0)" clip-path="url(#clip-path)">
      <path id="Path_39219" data-name="Path 39219" d="M21.016,10.724,30.558,1.5a2.018,2.018,0,0,1,.082.543V19.406a2.033,2.033,0,0,1-.082.543Zm-1.47,1.421L18.16,13.485a4.069,4.069,0,0,1-5.679,0l-1.386-1.34L1.542,21.379a2.038,2.038,0,0,0,.5.069H28.6a2.043,2.043,0,0,0,.5-.069ZM13.9,12.016a2.035,2.035,0,0,0,2.839,0L29.1.069A2.025,2.025,0,0,0,28.6,0H2.043a2.02,2.02,0,0,0-.5.069ZM.082,1.5A2.02,2.02,0,0,0,0,2.043V19.406a2.018,2.018,0,0,0,.082.543l9.542-9.224Z" transform="translate(0 -0.335)" fill="#fff"/>
    </g>
  </g>
</svg>
