<svg xmlns="http://www.w3.org/2000/svg" width="18.75" height="25" viewBox="0 0 18.75 25">
  <g id="pdf" transform="translate(-64)">
    <g id="Group_4632" data-name="Group 4632" transform="translate(64)">
      <g id="Group_4631" data-name="Group 4631">
        <path id="Path_937" data-name="Path 937" d="M82.6,5.361,77.389.153A.52.52,0,0,0,77.021,0H66.083A2.085,2.085,0,0,0,64,2.083V22.917A2.085,2.085,0,0,0,66.083,25H80.667a2.085,2.085,0,0,0,2.083-2.083V5.729A.52.52,0,0,0,82.6,5.361ZM77.542,1.778l3.43,3.43H78.583a1.043,1.043,0,0,1-1.042-1.042Zm4.167,21.138a1.043,1.043,0,0,1-1.042,1.042H66.083a1.043,1.043,0,0,1-1.042-1.042V2.083a1.043,1.043,0,0,1,1.042-1.042H76.5V4.167A2.085,2.085,0,0,0,78.583,6.25h3.125Z" transform="translate(-64)" fill="#002c62"/>
        <path id="Path_938" data-name="Path 938" d="M136.906,177.623a15.1,15.1,0,0,1-1.246-1.075c-.4-.4-.75-.781-1.057-1.147a11.661,11.661,0,0,0,.689-2.651c0-1.729-.625-2.083-1.563-2.083-.713,0-1.562.37-1.562,2.133a4.994,4.994,0,0,0,1.27,2.817c-.207.63-.449,1.357-.722,2.176-.131.393-.274.757-.424,1.094-.123.054-.242.11-.357.167-.414.207-.807.393-1.172.566-1.663.787-2.762,1.308-2.762,2.337,0,.747.811,1.209,1.563,1.209.968,0,2.431-1.293,3.5-3.472a20.722,20.722,0,0,1,3.575-.964,5.975,5.975,0,0,0,2.3,1.312c1.291,0,1.563-.747,1.563-1.373,0-1.231-1.407-1.231-2.083-1.231A12.34,12.34,0,0,0,136.906,177.623Zm-7.343,4.5a.823.823,0,0,1-.521-.167c0-.369,1.1-.891,2.166-1.4l.206-.1C130.632,181.6,129.858,182.124,129.563,182.124Zm3.646-9.325c0-1.092.339-1.092.521-1.092.368,0,.521,0,.521,1.042a8.351,8.351,0,0,1-.415,1.627A3.2,3.2,0,0,1,133.208,172.8Zm.4,5.6q.049-.136.095-.275c.193-.58.367-1.1.522-1.57q.324.357.7.731c.1.1.34.317.662.593C134.944,178.017,134.261,178.19,133.608,178.4Zm5.851.271c0,.234,0,.331-.483.334a3.839,3.839,0,0,1-.875-.5c.147-.016.255-.024.316-.024C139.186,178.479,139.4,178.554,139.458,178.668Z" transform="translate(-124.875 -162.333)" fill="#002c62"/>
      </g>
    </g>
  </g>
</svg>
