<svg id="files" xmlns="http://www.w3.org/2000/svg" width="38" height="38" viewBox="0 0 38 38">
  <g id="Group_782" data-name="Group 782" transform="translate(0 0)">
    <g id="Group_781" data-name="Group 781">
      <path id="Path_39113" data-name="Path 39113" d="M293.938,256h-4.75A1.187,1.187,0,0,0,288,257.188v9.5a1.187,1.187,0,0,0,1.188,1.188h4.75a2.375,2.375,0,0,0,2.375-2.375v-7.125A2.375,2.375,0,0,0,293.938,256Zm0,9.5h-3.562v-7.125h3.563Z" transform="translate(-266.625 -237)" fill="#b9b9b9"/>
      <path id="Path_39114" data-name="Path 39114" d="M423.125,258.375V256h-5.937A1.187,1.187,0,0,0,416,257.188v10.688h2.375v-4.75h4.75V260.75h-4.75v-2.375Z" transform="translate(-385.125 -237)" fill="#b9b9b9"/>
      <path id="Path_39115" data-name="Path 39115" d="M2.375,34.437V3.562A1.187,1.187,0,0,1,3.563,2.375H21.375v4.75A2.375,2.375,0,0,0,23.75,9.5H28.5v3.562h2.375V8.312a1.187,1.187,0,0,0-.344-.843L23.406.344A1.188,1.188,0,0,0,22.563,0h-19A3.563,3.563,0,0,0,0,3.562V34.437A3.562,3.562,0,0,0,3.563,38h8.313V35.625H3.563A1.188,1.188,0,0,1,2.375,34.437Z" transform="translate(0 0)" fill="#b9b9b9"/>
      <path id="Path_39116" data-name="Path 39116" d="M165.938,256h-4.75A1.187,1.187,0,0,0,160,257.188v10.688h2.375v-3.562h3.563a2.375,2.375,0,0,0,2.375-2.375v-3.562A2.375,2.375,0,0,0,165.938,256Zm0,5.938h-3.562v-3.562h3.563Z" transform="translate(-148.125 -237)" fill="#b9b9b9"/>
    </g>
  </g>
</svg>
