<svg id="phone-call" xmlns="http://www.w3.org/2000/svg" width="26.932" height="25.764" viewBox="0 0 26.932 25.764">
  <g id="Group_1057" data-name="Group 1057" transform="translate(0 0)">
    <path id="Path_39174" data-name="Path 39174" d="M26.764,18.908,23,15.313a2.556,2.556,0,0,0-4.17.9,2.587,2.587,0,0,1-2.959,1.541c-2.69-.642-6.322-3.981-6.995-6.677A2.311,2.311,0,0,1,10.489,8.25,2.347,2.347,0,0,0,11.43,4.27L7.664.674a2.781,2.781,0,0,0-3.632,0L1.477,3.114c-2.556,2.568.269,9.374,6.591,15.409s13.451,8.86,16.141,6.292l2.556-2.44A2.479,2.479,0,0,0,26.764,18.908Z" transform="translate(-0.539 0)" fill="#fff"/>
  </g>
</svg>
