<svg xmlns="http://www.w3.org/2000/svg" width="21.952" height="21" viewBox="0 0 21.952 21">
  <g id="phone-call" transform="translate(-0.539 0)">
    <g id="Group_1057" data-name="Group 1057" transform="translate(0.539 0)">
      <path id="Path_39174" data-name="Path 39174" d="M21.915,15.412l-3.07-2.931a2.084,2.084,0,0,0-3.4.733,2.109,2.109,0,0,1-2.412,1.256c-2.193-.523-5.153-3.245-5.7-5.443a1.884,1.884,0,0,1,1.316-2.3A1.913,1.913,0,0,0,9.417,3.48L6.347.549a2.267,2.267,0,0,0-2.96,0L1.3,2.538C-.78,4.631,1.523,10.179,6.676,15.1s10.964,7.222,13.157,5.129l2.083-1.989A2.021,2.021,0,0,0,21.915,15.412Z" transform="translate(-0.539 0)" fill="#002c62"/>
    </g>
  </g>
</svg>
