<svg xmlns="http://www.w3.org/2000/svg" width="23.004" height="23.004" viewBox="0 0 23.004 23.004">
  <g id="Group_4779" data-name="Group 4779" transform="translate(-4024.478 -3441.11)">
    <g id="Group_4778" data-name="Group 4778" transform="translate(4024.478 3441.11)">
      <path id="Path_39193" data-name="Path 39193" d="M4035.98,3464.114a11.468,11.468,0,1,1,4.478-.9A11.428,11.428,0,0,1,4035.98,3464.114Zm0-21.742a10.24,10.24,0,1,0,10.24,10.24A10.252,10.252,0,0,0,4035.98,3442.372Z" transform="translate(-4024.478 -3441.11)" fill="#002c62"/>
    </g>
    <path id="Path_39194" data-name="Path 39194" d="M4045.3,3458.976a11.708,11.708,0,0,1-18.611.055q.014-.461.037-.921a2.781,2.781,0,0,1,2.234-2.553c.306-.1.611-.209.914-.318l.121-.042a9.559,9.559,0,0,0,3.321-1.6,1.163,1.163,0,0,0,.377-.747,1.55,1.55,0,0,0-.047-.732,2.93,2.93,0,0,0-.856-1.229,2.077,2.077,0,0,1-.382-.813c-.105-.3-.193-.615-.28-.925a.53.53,0,0,1,.241-.674c.05-.027.05-.179.041-.27a16.762,16.762,0,0,1-.2-1.755c-.005-.557-.041-1.383.422-1.8a2.04,2.04,0,0,1,.58-.321,2.85,2.85,0,0,0,.644-.491,2.022,2.022,0,0,1,.719-.338c.063-.017.124-.031.188-.046a4.267,4.267,0,0,1,3.182.574h0a3.457,3.457,0,0,1,1.808,2.873,7.2,7.2,0,0,1-.1,1.3c-.015.128-.039.224.117.291a.335.335,0,0,1,.185.434c-.089.338-.188.676-.265,1.016a1.735,1.735,0,0,1-.316.793c-.17.2-.427.3-.585.514a2.984,2.984,0,0,0-.354.8c-.532,1.436.885,2.076,2.023,2.487s2.235.878,3.357,1.306a2.1,2.1,0,0,1,1.251,1.431A6.031,6.031,0,0,1,4045.3,3458.976Z" transform="translate(0 0)" fill="#002c62"/>
  </g>
</svg>
