<svg xmlns="http://www.w3.org/2000/svg" width="42.066" height="42.067" viewBox="0 0 42.066 42.067">
  <g id="Group_4779" data-name="Group 4779" transform="translate(-4024.478 -3441.11)">
    <g id="Group_4778" data-name="Group 4778" transform="translate(4024.478 3441.11)">
      <path id="Path_39193" data-name="Path 39193" d="M4045.511,3483.177a20.971,20.971,0,1,1,8.188-1.654A20.9,20.9,0,0,1,4045.511,3483.177Zm0-39.76a18.726,18.726,0,1,0,18.727,18.726A18.747,18.747,0,0,0,4045.511,3443.417Z" transform="translate(-4024.478 -3441.11)" fill="#fff"/>
    </g>
    <path id="Path_39194" data-name="Path 39194" d="M4060.724,3471.923a21.411,21.411,0,0,1-34.034.1q.026-.842.068-1.684c.135-2.55,1.758-3.887,4.085-4.669.559-.19,1.118-.382,1.672-.582l.222-.078c2.122-.746,4.372-1.416,6.072-2.93a2.123,2.123,0,0,0,.689-1.366,2.833,2.833,0,0,0-.087-1.338,5.355,5.355,0,0,0-1.565-2.248,3.8,3.8,0,0,1-.7-1.486c-.193-.558-.354-1.125-.513-1.691a.969.969,0,0,1,.44-1.232c.092-.05.092-.327.075-.494a30.78,30.78,0,0,1-.363-3.21c-.01-1.019-.075-2.53.772-3.295a3.726,3.726,0,0,1,1.061-.586,5.22,5.22,0,0,0,1.178-.9,3.709,3.709,0,0,1,1.314-.618c.115-.031.227-.056.343-.085a7.8,7.8,0,0,1,5.82,1.05l0,0a6.322,6.322,0,0,1,3.307,5.253,13.256,13.256,0,0,1-.189,2.379c-.027.235-.071.409.213.531a.613.613,0,0,1,.338.792c-.163.618-.345,1.236-.484,1.858a3.169,3.169,0,0,1-.578,1.451c-.311.364-.781.557-1.069.939a5.456,5.456,0,0,0-.648,1.459c-.974,2.625,1.619,3.8,3.7,4.549s4.087,1.605,6.139,2.387a3.849,3.849,0,0,1,2.289,2.617A11.023,11.023,0,0,1,4060.724,3471.923Z" transform="translate(1.833 1.858)" fill="#fff"/>
  </g>
</svg>
