<svg id="Group_4924" data-name="Group 4924" xmlns="http://www.w3.org/2000/svg" xmlns:xlink="http://www.w3.org/1999/xlink" width="30.873" height="30.873" viewBox="0 0 30.873 30.873">
  <defs>
    <clipPath id="clip-path">
      <rect id="Rectangle_1343" data-name="Rectangle 1343" width="30.873" height="30.873" fill="#fff"/>
    </clipPath>
  </defs>
  <g id="Group_4849" data-name="Group 4849" clip-path="url(#clip-path)">
    <path id="Path_39217" data-name="Path 39217" d="M130.035,123.285l-.393-.192c-.226-.11-.525-.256-.835-.405s-.631-.3-.9-.427-.484-.221-.584-.257l-.125-.043c-.042-.014-.085-.026-.129-.037a1.289,1.289,0,0,0-.133-.026.989.989,0,0,0-.137-.01.833.833,0,0,0-.219.028.8.8,0,0,0-.2.085.938.938,0,0,0-.18.141,1.263,1.263,0,0,0-.16.2c-.056.084-.141.2-.24.321s-.211.263-.324.4-.224.267-.321.381-.179.208-.232.267l-.022.024-.023.022a.153.153,0,0,1-.022.016.041.041,0,0,1-.019.006.487.487,0,0,1-.068-.023l-.137-.054-.153-.063-.116-.049a8.3,8.3,0,0,1-1.686-1.007,12.266,12.266,0,0,1-1.374-1.225,14.03,14.03,0,0,1-.969-1.108,7.231,7.231,0,0,1-.469-.656c-.009-.015-.016-.029-.021-.04a.282.282,0,0,1-.011-.028.135.135,0,0,1,0-.016.037.037,0,0,1,0-.005.113.113,0,0,1,.018-.032c.009-.013.022-.027.035-.042l.041-.044.037-.038c.031-.03.062-.063.094-.1s.064-.071.1-.108l.1-.114.1-.116.046-.055.046-.054.045-.054.045-.053c.047-.054.087-.106.122-.155s.066-.1.094-.144.053-.093.077-.139.048-.094.072-.142l.013-.025.013-.025.013-.025.013-.025a1.024,1.024,0,0,0,.1-.333.987.987,0,0,0-.006-.288,1.129,1.129,0,0,0-.063-.224,1.5,1.5,0,0,0-.065-.142c-.013-.027-.083-.19-.181-.424s-.225-.538-.354-.846l-.362-.872-.208-.5a2.253,2.253,0,0,0-.2-.378,1.248,1.248,0,0,0-.231-.266.867.867,0,0,0-.269-.157.92.92,0,0,0-.312-.051h-.037l-.042,0-.095,0c-.053,0-.164.013-.31.034s-.325.05-.514.09a5.559,5.559,0,0,0-.57.148,2.2,2.2,0,0,0-.477.209,2.251,2.251,0,0,0-.455.4,3.466,3.466,0,0,0-.474.683,4.254,4.254,0,0,0-.373.976,5.242,5.242,0,0,0-.151,1.278,4.806,4.806,0,0,0,.178,1.256,6.846,6.846,0,0,0,.426,1.134,8.837,8.837,0,0,0,.513.928c.168.266.324.482.441.637l.011.014.014.02.018.026.021.032a19.057,19.057,0,0,0,1.42,1.829,16.39,16.39,0,0,0,1.547,1.542,13.364,13.364,0,0,0,1.636,1.221,10.46,10.46,0,0,0,1.686.867c.545.218,1.018.387,1.431.519s.764.226,1.066.293a7.017,7.017,0,0,0,.767.13,4.892,4.892,0,0,0,.535.029h0c.062,0,.12,0,.176,0l.16-.009.146-.012.135-.013.028,0,.028,0,.028,0,.028,0a2.643,2.643,0,0,0,.7-.189,5.054,5.054,0,0,0,.833-.429,4.189,4.189,0,0,0,.763-.613,2.146,2.146,0,0,0,.488-.74,5.208,5.208,0,0,0,.181-.622,4.523,4.523,0,0,0,.093-.59,2.585,2.585,0,0,0,0-.5.861.861,0,0,0-.1-.342.735.735,0,0,0-.119-.148,1.029,1.029,0,0,0-.152-.12,2.064,2.064,0,0,0-.182-.1c-.065-.034-.135-.067-.209-.1" transform="translate(-107.19 -105.544)" fill="#fff"/>
    <path id="Path_39218" data-name="Path 39218" d="M15.71,0A15.189,15.189,0,0,0,1.74,9.2a14.943,14.943,0,0,0,.886,13.463l-.651,1.921L1.323,26.5.672,28.424.021,30.345a.4.4,0,0,0,.38.529H.431l.031,0,.03-.006.03-.008,2-.636,2-.636,2-.636,2-.636a15.032,15.032,0,0,0,1.694.774,15.212,15.212,0,0,0,16.2-3.4A15.1,15.1,0,0,0,29.679,20.9a14.945,14.945,0,0,0,0-11.7A15.18,15.18,0,0,0,15.71,0m0,26.963a12.149,12.149,0,0,1-1.752-.127A11.992,11.992,0,0,1,9.1,24.994a.4.4,0,0,0-.051-.028A.406.406,0,0,0,9,24.945a.4.4,0,0,0-.056-.012.386.386,0,0,0-.058,0H8.851l-.031,0-.03.006-.03.008-1,.319-1,.319-1,.319-1,.319.324-.956.324-.956.324-.956.324-.955a.4.4,0,0,0-.056-.366A11.982,11.982,0,0,1,5,20.437,11.688,11.688,0,0,1,3.846,16.92,11.907,11.907,0,0,1,3.7,15.051a11.768,11.768,0,0,1,.945-4.633,12.044,12.044,0,0,1,22.13,0,11.829,11.829,0,0,1,0,9.266A12.025,12.025,0,0,1,15.71,26.964" transform="translate(0 -0.001)" fill="#fff"/>
  </g>
</svg>
