<svg xmlns="http://www.w3.org/2000/svg" width="102.495" height="95.898" viewBox="0 0 102.495 95.898">
  <g id="Group_4832" data-name="Group 4832" transform="translate(-326 -4629)">
    <g id="Group_4791" data-name="Group 4791" transform="translate(326 4629)" opacity="0.47">
      <path id="Path_39189" data-name="Path 39189" d="M776.892,595.393l-31.478-44.866,40.73,9.433Z" transform="translate(-683.65 -547.426)" fill="#3b3e3e"/>
      <path id="Path_39190" data-name="Path 39190" d="M725.313,600.73l9.805-36.618L769.4,611.187Z" transform="translate(-725.313 -519.268)" fill="#3b3e3e"/>
      <path id="Path_39191" data-name="Path 39191" d="M766.446,550.739l34.79,49.512c.744,1.1,1.438,2.178,2.12,3.315.609,1.063,1.152,2.09,1.687,3.193.35.774.667,1.521.977,2.314.27.753.5,1.475.728,2.246.2.753.347,1.463.489,2.231.117.774.2,1.5.271,2.28.043.79.061,1.533.055,2.323-.031.8-.086,1.561-.163,2.36-.107.817-.23,1.588-.381,2.4a35.8,35.8,0,0,1-1.125,4.071,27.465,27.465,0,0,1-7.258,11.1l-1.506,1.315-1.573,1.186-1.644,1.054-1.709.928-1.779.8-1.85.673-1.918.547a26.737,26.737,0,0,1-5.724.833c-1.081.009-2.1-.021-3.171-.108-2.206-.224-4.425-.642-6.6-1.072-6.874-8.376-13.828-16.719-20.311-25.4q-4.158-5.6-8.035-11.388a118.727,118.727,0,0,1-8.426-13.954,37.643,37.643,0,0,1-3.89-10.472,34.624,34.624,0,0,1-.1-9.194,28.7,28.7,0,0,1,.826-4.13,27.574,27.574,0,0,1,7.47-12.767c.6-.553,1.192-1.066,1.819-1.585l1.546-1.137,1.619-1.017,1.7-.9,1.776-.78,1.85-.661a30.677,30.677,0,0,1,4.723-1.079,31.508,31.508,0,0,1,5.325-.224,57.284,57.284,0,0,1,7.393,1.192" transform="translate(-715.304 -549.518)" fill="#3b3e3e"/>
    </g>
    <g id="Group_4780" data-name="Group 4780" transform="translate(353 4648)">
      <path id="Path_39195" data-name="Path 39195" d="M1582.324,508.829c-3.519,2.081-11.125,6.487-11.125,6.487a3.74,3.74,0,0,1-.228.638,3.958,3.958,0,0,1-5.263,1.918l-5.9-2.822v-1l6.3,2.963a2.99,2.99,0,0,0,1.625.26c.1-.011.2-.028.3-.049.025-.006.051-.009.072-.016a3.044,3.044,0,0,0,2.011-1.653,2.971,2.971,0,0,0,.25-.839,3.019,3.019,0,0,0-1.71-3.163l-9.029-4.207c-.9-.419-2.017-.085-3.28.134-1.285.224-6.2,1.008-6.2,1.008a.62.62,0,0,0-.463.575l.006,11.417a.476.476,0,0,0,.475.474h4.45a5.591,5.591,0,0,1,.983.057,7.23,7.23,0,0,1,.686.236l11.491,4.468a3,3,0,0,0,1.521.02,2.308,2.308,0,0,0,.69-.263c3.591-2.242,14.674-10.878,15.89-11.828,2.788-2.174,2.475-3.7,1.609-4.938C1586.52,507.338,1584.371,507.617,1582.324,508.829Z" transform="translate(-1544.829 -469.177)" fill="#fff"/>
      <path id="Path_39196" data-name="Path 39196" d="M1856.468,514.6a2.646,2.646,0,0,0-2.557-.288l-8.474,4.161a4,4,0,0,1,.718,2.127Z" transform="translate(-1819.65 -475.646)" fill="#fff"/>
      <path id="Path_39197" data-name="Path 39197" d="M1752.7,151.511a5.2,5.2,0,1,0-5.2-5.2A5.2,5.2,0,0,0,1752.7,151.511Z" transform="translate(-1728.648 -129.065)" fill="#fff"/>
      <ellipse id="Ellipse_34" data-name="Ellipse 34" cx="3.319" cy="3.319" rx="3.319" ry="3.319" transform="translate(0.984 25.255) rotate(-75.798)" fill="#fff"/>
      <path id="Path_39198" data-name="Path 39198" d="M1487.253,356.814a4.311,4.311,0,0,1,.261-1.482h-3.782a2.5,2.5,0,0,0-2.506,2.506v5.574h6.027Z" transform="translate(-1481.226 -328.115)" fill="#fff"/>
      <path id="Path_39199" data-name="Path 39199" d="M1581.341,332.843v6.6h8.024v-7.284a4.939,4.939,0,0,1,.748-2.623h-5.462A3.309,3.309,0,0,0,1581.341,332.843Z" transform="translate(-1574.253 -304.145)" fill="#fff"/>
      <path id="Path_39200" data-name="Path 39200" d="M2042.908,250.13a3.32,3.32,0,1,0,3.319-3.319A3.319,3.319,0,0,0,2042.908,250.13Z" transform="translate(-2003.14 -227.278)" fill="#fff"/>
      <path id="Path_39201" data-name="Path 39201" d="M1909.526,195.04a4.38,4.38,0,1,0-4.38-4.38A4.379,4.379,0,0,0,1909.526,195.04Z" transform="translate(-1875.132 -171.033)" fill="#fff"/>
      <path id="Path_39202" data-name="Path 39202" d="M2075.6,355.332h-3.782a4.27,4.27,0,0,1,.258,1.482v6.6h6.03v-5.574A2.5,2.5,0,0,0,2075.6,355.332Z" transform="translate(-2030.002 -328.115)" fill="#fff"/>
      <path id="Path_39203" data-name="Path 39203" d="M1945.425,332.843a3.308,3.308,0,0,0-3.31-3.308h-5.46a4.952,4.952,0,0,1,.745,2.623v7.284h8.025Z" transform="translate(-1904.41 -304.145)" fill="#fff"/>
      <path id="Path_39204" data-name="Path 39204" d="M1621.727,190.66a4.382,4.382,0,1,0-4.38,4.38A4.379,4.379,0,0,0,1621.727,190.66Z" transform="translate(-1603.636 -171.033)" fill="#fff"/>
      <path id="Path_39205" data-name="Path 39205" d="M1725.66,315.008a3.931,3.931,0,0,0-3.932-3.93h-7.858a3.93,3.93,0,0,0-3.928,3.93v7.284h15.718Z" transform="translate(-1693.749 -286.995)" fill="#fff"/>
      <path id="Path_39206" data-name="Path 39206" d="M1547.943-9.027c-.01-.137-.016-.276-.016-.416a5.409,5.409,0,0,1,5.4-5.4,5.386,5.386,0,0,1,4.2,2.012,6.231,6.231,0,0,1,6.141-5.21,6.226,6.226,0,0,1,6.138,5.21,5.4,5.4,0,0,1,4.205-2.012,5.408,5.408,0,0,1,5.4,5.4c0,.14-.006.279-.016.416a4.331,4.331,0,0,1,3.306-1.533,4.479,4.479,0,0,1,.567.036v-5.857a.319.319,0,0,0-.318-.32h-.91a1,1,0,0,1-.559-.208l-2.969-2.56a.409.409,0,0,0-.5-.016l-2.488,1.871v-2.84a.317.317,0,0,0-.318-.318h-3.234v-1.417a.322.322,0,0,0-.321-.32H1570.5a.322.322,0,0,0-.321.32v1.417H1568.2v-4.609a.318.318,0,0,0-.318-.318h-.838a3.978,3.978,0,0,0-3.02-1.856v-1.2a.32.32,0,0,0-.319-.32h-.074a.32.32,0,0,0-.318.32v1.2a3.969,3.969,0,0,0-3.02,1.856h-.839a.318.318,0,0,0-.316.318v4.609h-.778a2.91,2.91,0,0,0-2.658-1.737,2.906,2.906,0,0,0-2.658,1.737h-.92a.32.32,0,0,0-.321.318v2.84l-2.484-1.871a.411.411,0,0,0-.5.016l-2.969,2.56a.989.989,0,0,1-.557.208h-.91a.32.32,0,0,0-.318.32v5.857a4.5,4.5,0,0,1,.567-.036A4.332,4.332,0,0,1,1547.943-9.027Z" transform="translate(-1539.621 29.07)" fill="#fff"/>
    </g>
  </g>
</svg>
