<svg xmlns="http://www.w3.org/2000/svg" width="102.495" height="95.898" viewBox="0 0 102.495 95.898">
  <g id="Group_4830" data-name="Group 4830" transform="translate(-1095 -4629)">
    <g id="Group_4789" data-name="Group 4789" transform="translate(1094.999 4629)" opacity="0.47">
      <path id="Path_39189" data-name="Path 39189" d="M776.892,595.393l-31.478-44.866,40.73,9.433Z" transform="translate(-683.648 -547.426)" fill="#3b3e3e"/>
      <path id="Path_39190" data-name="Path 39190" d="M725.313,600.73l9.805-36.618L769.4,611.187Z" transform="translate(-725.312 -519.268)" fill="#3b3e3e"/>
      <path id="Path_39191" data-name="Path 39191" d="M766.446,550.739l34.79,49.512c.744,1.1,1.438,2.178,2.12,3.315.609,1.063,1.152,2.09,1.687,3.193.35.774.667,1.521.977,2.314.27.753.5,1.475.728,2.246.2.753.347,1.463.489,2.231.117.774.2,1.5.271,2.28.043.79.061,1.533.055,2.323-.031.8-.086,1.561-.163,2.36-.107.817-.23,1.588-.381,2.4a35.8,35.8,0,0,1-1.125,4.071,27.465,27.465,0,0,1-7.258,11.1l-1.506,1.315-1.573,1.186-1.644,1.054-1.709.928-1.779.8-1.85.673-1.918.547a26.737,26.737,0,0,1-5.724.833c-1.081.009-2.1-.021-3.171-.108-2.206-.224-4.425-.642-6.6-1.072-6.874-8.376-13.828-16.719-20.311-25.4q-4.158-5.6-8.035-11.388a118.727,118.727,0,0,1-8.426-13.954,37.643,37.643,0,0,1-3.89-10.472,34.624,34.624,0,0,1-.1-9.194,28.7,28.7,0,0,1,.826-4.13,27.574,27.574,0,0,1,7.47-12.767c.6-.553,1.192-1.066,1.819-1.585l1.546-1.137,1.619-1.017,1.7-.9,1.776-.78,1.85-.661a30.677,30.677,0,0,1,4.723-1.079,31.508,31.508,0,0,1,5.325-.224,57.284,57.284,0,0,1,7.393,1.192" transform="translate(-715.303 -549.518)" fill="#3b3e3e"/>
    </g>
    <g id="Group_4788" data-name="Group 4788" transform="translate(1113 4650)">
      <path id="Path_39213" data-name="Path 39213" d="M60.705,98.847a15.17,15.17,0,0,0,2.342-3.488c.355-.727.047-1.316-.7-1.316h-.369L51.741,75.1h0l0-.008h0a.724.724,0,0,0-1.276,0L40.213,94.044h-.369c-.744,0-1.051.589-.7,1.316a15.168,15.168,0,0,0,2.342,3.488,13.633,13.633,0,0,0,4.319,3.239,12.369,12.369,0,0,0,10.577,0A13.621,13.621,0,0,0,60.705,98.847Zm-18.842-4.8L51.1,76.963l9.234,17.081Z" transform="translate(-39.001 -60.827)" fill="#fff"/>
      <path id="Path_39214" data-name="Path 39214" d="M139.431,77.087h-.369L128.814,58.3a.724.724,0,0,0-1.273,0h0L117.293,77.087h-.369c-.744,0-1.051.589-.7,1.316a15.154,15.154,0,0,0,2.342,3.487,13.626,13.626,0,0,0,4.319,3.239,12.37,12.37,0,0,0,10.578,0,13.634,13.634,0,0,0,4.319-3.239,15.134,15.134,0,0,0,2.342-3.487C140.481,77.675,140.174,77.087,139.431,77.087Zm-20.484,0,9.231-16.927,9.231,16.927Z" transform="translate(-74.564 -53.078)" fill="#fff"/>
      <path id="Path_39215" data-name="Path 39215" d="M93.71,98.844h-5.4v-.1a2.9,2.9,0,0,0-2.9-2.9H80.565V58.626a3.148,3.148,0,0,0,2.064-2.166l16.505-3.588a2.156,2.156,0,0,0,3.161-.7,1.444,1.444,0,0,0-.606-2.811,2.155,2.155,0,0,0-3.167.674L82.015,53.623a3.147,3.147,0,0,0-1.45-.981V51.05a.968.968,0,0,0-1.936,0v1.592a3.148,3.148,0,0,0-2.064,2.165L60.06,58.4a2.156,2.156,0,0,0-3.162.7,1.447,1.447,0,0,0,.438,2.828,1.486,1.486,0,0,0,.168-.018,2.153,2.153,0,0,0,3.168-.673l16.508-3.588a3.152,3.152,0,0,0,1.449.981V95.844H73.79a2.9,2.9,0,0,0-2.9,2.9v.1h-5.4a1.936,1.936,0,0,0-1.936,1.935v1.548h32.1v-1.548A1.935,1.935,0,0,0,93.71,98.844Z" transform="translate(-46.792 -48.933)" fill="#fff"/>
    </g>
  </g>
</svg>
