<svg xmlns="http://www.w3.org/2000/svg" width="102.495" height="95.898" viewBox="0 0 102.495 95.898">
  <g id="Group_4829" data-name="Group 4829" transform="translate(-1479 -4632)">
    <g id="Group_4772" data-name="Group 4772" transform="translate(1479 4632)" opacity="0.47">
      <path id="Path_39189" data-name="Path 39189" d="M776.892,595.393l-31.478-44.866,40.73,9.433Z" transform="translate(-683.649 -547.426)" fill="#3b3e3e"/>
      <path id="Path_39190" data-name="Path 39190" d="M725.313,600.73l9.805-36.618L769.4,611.187Z" transform="translate(-725.313 -519.268)" fill="#3b3e3e"/>
      <path id="Path_39191" data-name="Path 39191" d="M766.446,550.739l34.79,49.512c.744,1.1,1.438,2.178,2.12,3.315.609,1.063,1.152,2.09,1.687,3.193.35.774.667,1.521.977,2.314.27.753.5,1.475.728,2.246.2.753.347,1.463.489,2.231.117.774.2,1.5.271,2.28.043.79.061,1.533.055,2.323-.031.8-.086,1.561-.163,2.36-.107.817-.23,1.588-.381,2.4a35.8,35.8,0,0,1-1.125,4.071,27.465,27.465,0,0,1-7.258,11.1l-1.506,1.315-1.573,1.186-1.644,1.054-1.709.928-1.779.8-1.85.673-1.918.547a26.737,26.737,0,0,1-5.724.833c-1.081.009-2.1-.021-3.171-.108-2.206-.224-4.425-.642-6.6-1.072-6.874-8.376-13.828-16.719-20.311-25.4q-4.158-5.6-8.035-11.388a118.727,118.727,0,0,1-8.426-13.954,37.643,37.643,0,0,1-3.89-10.472,34.624,34.624,0,0,1-.1-9.194,28.7,28.7,0,0,1,.826-4.13,27.574,27.574,0,0,1,7.47-12.767c.6-.553,1.192-1.066,1.819-1.585l1.546-1.137,1.619-1.017,1.7-.9,1.776-.78,1.85-.661a30.677,30.677,0,0,1,4.723-1.079,31.508,31.508,0,0,1,5.325-.224,57.284,57.284,0,0,1,7.393,1.192" transform="translate(-715.303 -549.518)" fill="#3b3e3e"/>
    </g>
    <path id="Path_39192" data-name="Path 39192" d="M535.986,449.7l-.969-3.616a1.455,1.455,0,0,0-1.754-1.037l-39.516,9.741v-.71a1.456,1.456,0,0,0-.254-.821l-3.28-4.8a1.456,1.456,0,0,0-1.2-.635h-9a1.456,1.456,0,0,0-1.2.635l-3.28,4.8a1.456,1.456,0,0,0-.254.821v5.263L458.1,463.57a1.455,1.455,0,0,0-1.058,1.79l1.774,6.622A1.456,1.456,0,0,0,460.632,473l14.643-4.241v1.4a1.456,1.456,0,0,0,1.456,1.456h.884v30.019H480.3v-6.26l6.26,6.26h4.843V471.623h.884a1.456,1.456,0,0,0,1.456-1.456v-6.754l34.823-10.085v13.248h-1.6a1.456,1.456,0,0,0-1.456,1.456v5.106a1.456,1.456,0,0,0,.549,1.138l2.5,2v2.485a1.344,1.344,0,0,0,1.344,1.344h.015a1.392,1.392,0,1,1-1.33,1.807,1.344,1.344,0,0,0-2.567.8,4.081,4.081,0,1,0,5.227-5.071v-1.242l2.656-2.117a1.455,1.455,0,0,0,.549-1.138v-5.106a1.456,1.456,0,0,0-1.456-1.456h-1.75v-9.413h0V452.55l3.726-1.079A1.456,1.456,0,0,0,535.986,449.7Zm-60.71,16.037-14.026,4.062-1.006-3.753,15.032-3.706Zm13.443,16.787v6.466l-6.466-6.466Zm-8.415-2.688v-6.466l6.466,6.466Zm8.415-1.854-6.355-6.355h6.355Zm-8.415,6.4,6.466,6.466H480.3Zm1.949,9.155h6.466v6.466Zm11.494-33.145v-2.6l38.827-9.572.231.86Z" transform="translate(1034.003 4207)" fill="#fff"/>
  </g>
</svg>
