<svg xmlns="http://www.w3.org/2000/svg" xmlns:xlink="http://www.w3.org/1999/xlink" width="102.495" height="95.898" viewBox="0 0 102.495 95.898">
  <defs>
    <radialGradient id="radial-gradient" cx="0.066" cy="-0.001" r="1.741" gradientTransform="translate(0.005) scale(0.991 1)" gradientUnits="objectBoundingBox">
      <stop offset="0" stop-color="#fff"/>
      <stop offset="0.701" stop-color="#fff"/>
      <stop offset="1" stop-color="#fff"/>
    </radialGradient>
  </defs>
  <g id="Group_4831" data-name="Group 4831" transform="translate(-710 -4628.6)">
    <g id="Group_4790" data-name="Group 4790" transform="translate(710.001 4628.6)" opacity="0.47">
      <path id="Path_39189" data-name="Path 39189" d="M776.892,595.393l-31.478-44.866,40.73,9.433Z" transform="translate(-683.65 -547.426)" fill="#3b3e3e"/>
      <path id="Path_39190" data-name="Path 39190" d="M725.313,600.73l9.805-36.618L769.4,611.187Z" transform="translate(-725.314 -519.268)" fill="#3b3e3e"/>
      <path id="Path_39191" data-name="Path 39191" d="M766.446,550.739l34.79,49.512c.744,1.1,1.438,2.178,2.12,3.315.609,1.063,1.152,2.09,1.687,3.193.35.774.667,1.521.977,2.314.27.753.5,1.475.728,2.246.2.753.347,1.463.489,2.231.117.774.2,1.5.271,2.28.043.79.061,1.533.055,2.323-.031.8-.086,1.561-.163,2.36-.107.817-.23,1.588-.381,2.4a35.8,35.8,0,0,1-1.125,4.071,27.465,27.465,0,0,1-7.258,11.1l-1.506,1.315-1.573,1.186-1.644,1.054-1.709.928-1.779.8-1.85.673-1.918.547a26.737,26.737,0,0,1-5.724.833c-1.081.009-2.1-.021-3.171-.108-2.206-.224-4.425-.642-6.6-1.072-6.874-8.376-13.828-16.719-20.311-25.4q-4.158-5.6-8.035-11.388a118.727,118.727,0,0,1-8.426-13.954,37.643,37.643,0,0,1-3.89-10.472,34.624,34.624,0,0,1-.1-9.194,28.7,28.7,0,0,1,.826-4.13,27.574,27.574,0,0,1,7.47-12.767c.6-.553,1.192-1.066,1.819-1.585l1.546-1.137,1.619-1.017,1.7-.9,1.776-.78,1.85-.661a30.677,30.677,0,0,1,4.723-1.079,31.508,31.508,0,0,1,5.325-.224,57.284,57.284,0,0,1,7.393,1.192" transform="translate(-715.304 -549.518)" fill="#3b3e3e"/>
    </g>
    <g id="Group_4787" data-name="Group 4787" transform="translate(741 4651)">
      <g id="Group_4786" data-name="Group 4786" transform="translate(0 0)">
        <path id="Path_39207" data-name="Path 39207" d="M243.989,103.877l.826-.745a1.4,1.4,0,0,0,0-2.077l-.826-.745a1.4,1.4,0,0,1-.255-1.771l.582-.948a1.4,1.4,0,0,0-.585-1.993l-1-.482a1.4,1.4,0,0,1-.743-1.628l.292-1.073a1.4,1.4,0,0,0-1.123-1.747l-1.1-.18a1.4,1.4,0,0,1-1.172-1.352l-.022-1.112a1.4,1.4,0,0,0-1.57-1.36l-1.1.136a1.4,1.4,0,0,1-1.505-.967l-.335-1.061a1.4,1.4,0,0,0-1.89-.863l-1.021.441a1.4,1.4,0,0,1-1.717-.5l-.62-.923a1.4,1.4,0,0,0-2.056-.3l-.855.711a1.4,1.4,0,0,1-1.789,0l-.855-.711a1.4,1.4,0,0,0-2.056.3l-.62.923a1.4,1.4,0,0,1-1.717.5l-1.021-.441a1.4,1.4,0,0,0-1.89.863l-.335,1.061a1.4,1.4,0,0,1-1.505.967l-1.1-.136a1.4,1.4,0,0,0-1.57,1.36l-.023,1.112a1.4,1.4,0,0,1-1.172,1.352l-1.1.18a1.4,1.4,0,0,0-1.123,1.747l.292,1.073a1.4,1.4,0,0,1-.743,1.628l-1,.482a1.4,1.4,0,0,0-.585,1.993l.582.948a1.4,1.4,0,0,1-.255,1.771l-.826.745a1.4,1.4,0,0,0,0,2.077l.826.745a1.4,1.4,0,0,1,.255,1.771l-.582.948a1.4,1.4,0,0,0,.585,1.993l1,.482a1.4,1.4,0,0,1,.743,1.628l-.292,1.073a1.4,1.4,0,0,0,1.123,1.748l1.1.18a1.4,1.4,0,0,1,1.172,1.352l.023,1.112a1.4,1.4,0,0,0,1.57,1.36l1.1-.136a1.4,1.4,0,0,1,1.505.967l.335,1.061a1.4,1.4,0,0,0,1.89.863l1.021-.441a1.4,1.4,0,0,1,1.717.5l.62.923a1.4,1.4,0,0,0,2.056.3l.855-.711a1.4,1.4,0,0,1,1.789,0l.855.711a1.4,1.4,0,0,0,2.056-.3l.62-.923a1.4,1.4,0,0,1,1.717-.5l1.021.441a1.4,1.4,0,0,0,1.89-.863l.335-1.061a1.4,1.4,0,0,1,1.505-.967l1.1.136a1.4,1.4,0,0,0,1.57-1.36l.022-1.112a1.4,1.4,0,0,1,1.172-1.352l1.1-.18a1.4,1.4,0,0,0,1.123-1.748l-.292-1.073a1.4,1.4,0,0,1,.743-1.628l1-.482a1.4,1.4,0,0,0,.585-1.993l-.582-.948A1.4,1.4,0,0,1,243.989,103.877Zm-18.7,13.791a15.559,15.559,0,1,1,15.559-15.559A15.559,15.559,0,0,1,225.288,117.668Z" transform="translate(-205.316 -82.302)" fill="url(#radial-gradient)"/>
        <g id="Group_4784" data-name="Group 4784" transform="translate(4.349 4.184)">
          <g id="Group_4783" data-name="Group 4783">
            <g id="Group_4782" data-name="Group 4782">
              <g id="Group_4781" data-name="Group 4781" opacity="0.3">
                <path id="Path_39208" data-name="Path 39208" d="M294.408,183.9a14.945,14.945,0,1,1,10.568-4.377A14.848,14.848,0,0,1,294.408,183.9Z" transform="translate(-278.785 -153.334)" fill="#1f2323"/>
                <path id="Path_39209" data-name="Path 39209" d="M285.085,145.368a14.218,14.218,0,1,1-5.553,1.121,14.176,14.176,0,0,1,5.553-1.121m0-1.356a15.623,15.623,0,1,0,15.623,15.623,15.623,15.623,0,0,0-15.623-15.623Z" transform="translate(-269.462 -144.012)" fill="#1f2323"/>
              </g>
            </g>
          </g>
        </g>
        <g id="Group_4785" data-name="Group 4785" transform="translate(1.604 33.111)">
          <path id="Path_39210" data-name="Path 39210" d="M519.668,570.644l-.016.767a2.167,2.167,0,0,1-2.153,2.113h0a2.18,2.18,0,0,1-.266-.016l-1.1-.136a.657.657,0,0,0-.08,0,.639.639,0,0,0-.611.449l-.335,1.061a2.155,2.155,0,0,1-2.912,1.33l-1.021-.442a.641.641,0,0,0-.788.231l-.62.923a2.153,2.153,0,0,1-2.336.883l-1.711,7.83,1.867,8.543,6.774-8.418,9.348,3.358Z" transform="translate(-486.952 -570.644)" fill="url(#radial-gradient)"/>
          <path id="Path_39211" data-name="Path 39211" d="M248.62,577.374l-.855-.711a.642.642,0,0,0-.821,0l-.855.711a2.156,2.156,0,0,1-3.169-.456L242.3,576a.641.641,0,0,0-.788-.231l-1.021.442a2.155,2.155,0,0,1-2.912-1.33l-.335-1.061a.639.639,0,0,0-.611-.449.655.655,0,0,0-.079,0l-1.1.136a2.155,2.155,0,0,1-2.42-2.1l-.015-.767-4.037,18.471,9.348-3.358,6.774,8.418,3.65-16.7C248.705,577.442,248.662,577.409,248.62,577.374Z" transform="translate(-228.978 -570.644)" fill="url(#radial-gradient)"/>
        </g>
      </g>
      <path id="Path_39212" data-name="Path 39212" d="M366.845,258.577l-3.882-3.883-8.473,8.473-4.633-4.633-3.883,3.883,8.515,8.515Z" transform="translate(-336.437 -243.005)" fill="url(#radial-gradient)"/>
    </g>
  </g>
</svg>
